<?xml version="1.0" encoding="UTF-8" standalone="no"?>
<!-- Created with Inkscape (http://www.inkscape.org/) -->

<svg
   xmlns:dc="http://purl.org/dc/elements/1.1/"
   xmlns:cc="http://creativecommons.org/ns#"
   xmlns:rdf="http://www.w3.org/1999/02/22-rdf-syntax-ns#"
   xmlns:svg="http://www.w3.org/2000/svg"
   xmlns="http://www.w3.org/2000/svg"
   xmlns:sodipodi="http://sodipodi.sourceforge.net/DTD/sodipodi-0.dtd"
   xmlns:inkscape="http://www.inkscape.org/namespaces/inkscape"
   version="1.1"
   id="svg2"
   width="179"
   height="55"
   viewBox="0 0 179 55"
   sodipodi:docname="Mouth_Teeth.svg"
   inkscape:version="0.92.5 (2060ec1f9f, 2020-04-08)"
   inkscape:export-filename="C:\Users\Willian\Documents\IVA2020\ArthurPrototype\Assets\Sprites\Prototypes\Mouth_Teeth.png"
   inkscape:export-xdpi="96"
   inkscape:export-ydpi="96">
  <metadata
     id="metadata8">
    <rdf:RDF>
      <cc:Work
         rdf:about="">
        <dc:format>image/svg+xml</dc:format>
        <dc:type
           rdf:resource="http://purl.org/dc/dcmitype/StillImage" />
        <dc:title />
      </cc:Work>
    </rdf:RDF>
  </metadata>
  <defs
     id="defs6" />
  <sodipodi:namedview
     pagecolor="#414141"
     bordercolor="#000000"
     borderopacity="1"
     objecttolerance="10"
     gridtolerance="10"
     guidetolerance="10"
     inkscape:pageopacity="0.74509804"
     inkscape:pageshadow="2"
     inkscape:window-width="1920"
     inkscape:window-height="1017"
     id="namedview4"
     showgrid="false"
     inkscape:pagecheckerboard="true"
     inkscape:zoom="5.8069664"
     inkscape:cx="87.459709"
     inkscape:cy="8.9748581"
     inkscape:window-x="-8"
     inkscape:window-y="32"
     inkscape:window-maximized="1"
     inkscape:current-layer="svg2"
     showguides="false" />
  <ellipse
     style="opacity:1;fill:#800000;stroke:none;stroke-width:1.34716892"
     id="path817-1"
     cx="89.5"
     cy="27.5"
     rx="89.5"
     ry="27.5"
     inkscape:export-xdpi="96"
     inkscape:export-ydpi="96" />
  <path
     style="opacity:0.7;fill:#2b0000;stroke-width:1.46980858"
     id="path893"
     sodipodi:type="arc"
     sodipodi:cx="89.5"
     sodipodi:cy="-47.333134"
     sodipodi:rx="43.626255"
     sodipodi:ry="39.666267"
     sodipodi:start="0"
     sodipodi:end="3.1415927"
     sodipodi:open="true"
     d="m 133.12626,-47.333134 a 43.626255,39.666267 0 0 1 -21.81313,34.351996 43.626255,39.666267 0 0 1 -43.626259,-1e-6 43.626255,39.666267 0 0 1 -21.813126,-34.351997"
     transform="scale(1,-1)" />
  <ellipse
     style="opacity:1;fill:#aa0000"
     id="path818"
     cx="86.676659"
     cy="54.717663"
     r="35.291798" />
  <path
     style="opacity:1;fill:#ffffff;stroke:none;stroke-width:2.60374737"
     d="M 89.427473,0 89.254878,0.00195313 C 62.687586,0.0372948 37.732072,4.1717178 21.938963,11.154297 c 0.566125,2.319477 1.152162,8.133898 1.770022,10.586717 0,13.217975 45.744923,13.624738 65.830492,13.641798 20.047393,-0.02211 65.712973,1.069126 65.712973,-13.647989 0.63092,-2.504642 1.23158,-8.198999 1.80859,-10.564901 C 141.22613,4.1573419 116.15789,0.01329456 89.491738,0 h -0.03121 z"
     id="path817-3"
     inkscape:connector-curvature="0"
     sodipodi:nodetypes="cccccccccc" />
  <path
     style="opacity:1;fill:#ffffff;stroke:none;stroke-width:1.63434875"
     d="m 121.01061,39.125 c -9.98465,0.0595 -22.261943,1.441576 -31.433272,1.431641 -18.384484,0.01534 -49.210493,-4.25724 -49.210493,4.880859 -0.531908,1.219842 -1.020721,2.357174 -1.537883,3.548828 a 81.470487,27.5 0 0 0 50.625701,6.011719 c 0.0017,-3e-6 0.0036,-10e-7 0.0054,0 L 89.548892,55 a 81.470487,27.5 0 0 0 0.02845,0 81.470487,27.5 0 0 0 50.593698,-5.955078 c -0.49904,-1.14965 -0.97007,-2.244135 -1.48276,-3.419922 0,-5.296826 -7.69301,-6.559502 -17.67767,-6.5 z"
     id="path817-3-1"
     inkscape:connector-curvature="0" />
  <ellipse
     style="opacity:1;fill:none;stroke:#d25a5a;stroke-width:9.86131668;stroke-miterlimit:4;stroke-dasharray:none;stroke-opacity:1"
     id="path817-1-4"
     cx="89.5"
     cy="27.5"
     rx="84.569344"
     ry="22.569342"
     inkscape:export-xdpi="96"
     inkscape:export-ydpi="96" />
</svg>
