<?xml version="1.0" encoding="UTF-8" standalone="no"?>
<!-- Created with Inkscape (http://www.inkscape.org/) -->

<svg
   xmlns:dc="http://purl.org/dc/elements/1.1/"
   xmlns:cc="http://creativecommons.org/ns#"
   xmlns:rdf="http://www.w3.org/1999/02/22-rdf-syntax-ns#"
   xmlns:svg="http://www.w3.org/2000/svg"
   xmlns="http://www.w3.org/2000/svg"
   xmlns:sodipodi="http://sodipodi.sourceforge.net/DTD/sodipodi-0.dtd"
   xmlns:inkscape="http://www.inkscape.org/namespaces/inkscape"
   version="1.1"
   id="svg2"
   width="179"
   height="55"
   viewBox="0 0 179 55"
   sodipodi:docname="Mouth_Teeth_Happiness.svg"
   inkscape:version="0.92.5 (2060ec1f9f, 2020-04-08)"
   inkscape:export-filename="C:\Users\Willian\Documents\IVA2020\ArthurPrototype\Assets\Sprites\Prototypes\Mouth_Teeth.png"
   inkscape:export-xdpi="96"
   inkscape:export-ydpi="96">
  <metadata
     id="metadata8">
    <rdf:RDF>
      <cc:Work
         rdf:about="">
        <dc:format>image/svg+xml</dc:format>
        <dc:type
           rdf:resource="http://purl.org/dc/dcmitype/StillImage" />
        <dc:title />
      </cc:Work>
    </rdf:RDF>
  </metadata>
  <defs
     id="defs6" />
  <sodipodi:namedview
     pagecolor="#414141"
     bordercolor="#000000"
     borderopacity="1"
     objecttolerance="10"
     gridtolerance="10"
     guidetolerance="10"
     inkscape:pageopacity="0.74509804"
     inkscape:pageshadow="2"
     inkscape:window-width="1920"
     inkscape:window-height="1017"
     id="namedview4"
     showgrid="false"
     inkscape:pagecheckerboard="true"
     inkscape:zoom="2.9034832"
     inkscape:cx="117.46996"
     inkscape:cy="10.692934"
     inkscape:window-x="-8"
     inkscape:window-y="32"
     inkscape:window-maximized="1"
     inkscape:current-layer="svg2"
     showguides="false" />
  <ellipse
     style="opacity:1;fill:#d40000;stroke:none;stroke-width:1.34716892"
     id="path817-1"
     cx="89.5"
     cy="27.5"
     rx="89.5"
     ry="27.5"
     inkscape:export-xdpi="96"
     inkscape:export-ydpi="96" />
  <path
     style="opacity:0.7;fill:#550000;stroke-width:1.46980858"
     id="path893"
     sodipodi:type="arc"
     sodipodi:cx="89.5"
     sodipodi:cy="-47.333134"
     sodipodi:rx="43.626255"
     sodipodi:ry="39.666267"
     sodipodi:start="0"
     sodipodi:end="3.1415927"
     sodipodi:open="true"
     d="m 133.12626,-47.333134 a 43.626255,39.666267 0 0 1 -21.81313,34.351996 43.626255,39.666267 0 0 1 -43.626259,-1e-6 43.626255,39.666267 0 0 1 -21.813126,-34.351997"
     transform="scale(1,-1)" />
  <ellipse
     style="opacity:1;fill:#aa0000"
     id="path818"
     cx="86.676659"
     cy="54.717663"
     r="35.291798" />
  <path
     style="opacity:1;fill:#ffffff;stroke:none;stroke-width:2.68542528"
     d="M 89.443359 0 A 89.5 27.5 0 0 0 89.259766 0.001953125 A 89.5 27.5 0 0 0 17.654297 11.154297 C 18.256497 13.473774 18.879878 15.844056 19.537109 18.296875 C 19.537109 31.51485 68.197024 35.365752 89.5625 35.382812 C 110.88737 35.360706 159.46289 33.180006 159.46289 18.462891 C 160.13401 15.958249 160.77294 13.535824 161.38672 11.169922 A 89.5 27.5 0 0 0 89.511719 0 L 89.478516 0 L 89.443359 0 z "
     id="path817-3" />
  <path
     style="opacity:1;fill:#ffffff;stroke:none;stroke-width:1.71299505"
     d="M 124.06445 39.125 C 113.09574 39.184502 99.608434 40.566576 89.533203 40.556641 C 69.336794 40.571981 35.472656 36.299401 35.472656 45.4375 C 34.888325 46.657342 34.351335 47.794674 33.783203 48.986328 A 89.5 27.5 0 0 0 89.398438 54.998047 C 89.400302 54.998044 89.402435 54.998046 89.404297 54.998047 L 89.501953 55 A 89.5 27.5 0 0 0 89.533203 55 A 89.5 27.5 0 0 0 145.11328 49.044922 C 144.56506 47.895272 144.0476 46.800787 143.48438 45.625 C 143.48438 40.328174 135.03317 39.065498 124.06445 39.125 z "
     id="path817-3-1" />
</svg>
